<svg id="Layer_1" data-name="Layer 1" xmlns="http://www.w3.org/2000/svg" viewBox="0 0 500 500"><defs><style>.cls-1{fill:#b7b7b7;}.cls-2{fill:#9b9b9b;}.cls-3{fill:#ed667a;}.cls-4{fill:#c64268;}.cls-5{fill:none;stroke:#000;stroke-linecap:round;stroke-linejoin:round;stroke-width:15px;}</style></defs><title>lungs</title><path class="cls-1" d="M299.05,218l-16.28-10.82a26.21,26.21,0,0,1-11.7-21.83V29.07H228.34V185.36a26.22,26.22,0,0,1-11.71,21.83l-15.7,10.44c1.09,18.29,1.39,38.23,1.38,59l24.06-15.82a42.45,42.45,0,0,1,46.67,0L297.69,277C297.68,256.25,298,236.32,299.05,218Z"/><path class="cls-2" d="M271.07,185.36V29.07H250V253.83a42.5,42.5,0,0,1,23.05,7L297.69,277c0-20.77.28-40.7,1.36-59l-16.28-10.82A26.21,26.21,0,0,1,271.07,185.36Z"/><path class="cls-3" d="M201.74,361.67c0,92.77-49.38,59.26-135.47,102.82-65.49,33.14-67.37-68-46.65-158.4C45.56,192.94,116.75,87.79,171.07,124,209.08,149.25,201.74,258,201.74,361.67Z"/><path class="cls-3" d="M298.26,361.67c0,92.77,49.38,59.26,135.47,102.82,65.49,33.14,67.37-68,46.65-158.4C454.44,192.94,383.25,87.79,328.93,124,290.92,149.25,298.26,258,298.26,361.67Z"/><path class="cls-4" d="M201.74,325.67c0,92.77-49.38,59.26-135.47,102.82-37.83,19.14-54.44-6.51-57.72-49-3.9,62.19,10.08,109.12,57.72,85,86.09-43.56,135.47-10.05,135.47-102.82Z"/><path class="cls-4" d="M433.73,428.49c-86.09-43.56-135.47-10.05-135.47-102.82v36c0,92.77,49.38,59.26,135.47,102.82,47.64,24.1,61.62-22.83,57.72-85C488.17,422,471.56,447.63,433.73,428.49Z"/><path class="cls-5" d="M201.74,361.67c0,92.77-49.38,59.26-135.47,102.82-65.49,33.14-67.37-68-46.65-158.4C45.56,192.94,116.75,87.79,171.07,124,209.08,149.25,201.74,258,201.74,361.67Z"/><path class="cls-5" d="M298.26,361.67c0,92.77,49.38,59.26,135.47,102.82,65.49,33.14,67.37-68,46.65-158.4C454.44,192.94,383.25,87.79,328.93,124,290.92,149.25,298.26,258,298.26,361.67Z"/><path class="cls-5" d="M299.05,218l-16.28-10.82a26.21,26.21,0,0,1-11.7-21.83V29.07H228.34V185.36a26.22,26.22,0,0,1-11.71,21.83l-15.7,10.44c1.09,18.29,1.39,38.23,1.38,59l24.06-15.82a42.45,42.45,0,0,1,46.67,0L297.69,277C297.68,256.25,298,236.32,299.05,218Z"/></svg>